<svg width="27" height="26" viewBox="0 0 27 26" fill="none" xmlns="http://www.w3.org/2000/svg">
<path d="M12.1088 13.831L6.2831 15.7834C6.2831 15.7834 5.82481 15.2165 5.44198 14.9264C5.03407 14.6174 4.26441 14.2837 4.26441 14.2837C4.26441 13.0696 4.60048 11.9725 5.44198 10.713C6.13351 9.67787 7.12636 8.8346 7.82045 8.39429C8.30335 9.1004 8.81534 9.51973 9.39029 9.88726C9.62205 10.0354 9.86483 10.1756 10.1186 10.3222C10.1987 10.3684 10.2798 10.4153 10.3621 10.4632C10.706 10.6637 11.0721 10.8848 11.467 11.1624C11.9136 11.4765 12.2648 11.7395 12.5899 12.005C12.5836 12.2805 12.5541 12.866 12.4196 13.1451C12.2254 13.5479 12.1088 13.831 12.1088 13.831Z" fill="#9A9AA0"/>
<path d="M13.8134 12.893C13.0561 12.168 12.5321 11.7259 11.5743 11.0524C11.1738 10.7709 10.803 10.547 10.4573 10.3455C10.3736 10.2967 10.2916 10.2493 10.2111 10.2028C9.95814 10.0568 9.71969 9.91904 9.49147 9.77315C8.92784 9.41286 8.42959 9.00447 7.9573 8.30992C8.59149 7.92755 9.09579 7.72673 9.54786 7.5467C10.1453 7.30879 10.6515 7.10721 11.2457 6.57092C12.1838 5.72432 13.0121 4 13.0121 4C13.0121 4 19.2312 7.91276 21.1156 10.7595L14.1055 13.1411L13.8134 12.893Z" fill="#9A9AA0"/>
<path d="M16.3766 21.7108C15.6076 21.9365 15.6195 21.7822 15.6195 21.7822C15.6195 21.7822 15.6868 21.0388 15.7037 20.2111C15.7125 19.7782 15.7007 19.4674 15.3672 19.1399C15.0059 18.785 14.5967 18.6782 14.0456 18.7114C13.4643 18.7464 13.2936 18.8976 13.0121 19.2113C12.813 19.4331 12.7071 19.8768 12.7071 19.8768C12.7071 19.8768 12.5496 20.4953 12.3392 20.8538C12.0372 21.3684 11.5482 22.0553 11.2457 21.9965C10.2578 21.8042 9.23109 21.4315 8.13356 20.7824C7.33216 20.3085 6.2831 19.3541 6.2831 19.3541C6.2831 19.3541 6.69669 18.5921 6.78777 18.0687C6.88869 17.4886 6.70366 16.569 6.70366 16.569L11.7476 14.7941C11.7476 14.7941 11.5995 15.4522 11.7804 15.8241C12.144 16.5717 13.145 16.856 14.0456 16.5925C15.023 16.3066 15.5328 15.7824 15.199 14.5693C15.0693 14.0982 14.7191 13.7838 14.7191 13.7838L21.5328 11.4752C22.0036 12.4022 22.2644 13.4242 22.2644 14.4979C22.2644 16.5395 21.113 18.8265 19.3205 20.2111C18.552 20.8047 17.3192 21.4341 16.3766 21.7108Z" fill="#9A9AA0"/>
<path d="M12.1088 13.831L6.2831 15.7834C6.2831 15.7834 5.82481 15.2165 5.44198 14.9264C5.03407 14.6174 4.26441 14.2837 4.26441 14.2837C4.26441 13.0696 4.60048 11.9725 5.44198 10.713C6.13351 9.67787 7.12636 8.8346 7.82045 8.39429C8.30335 9.1004 8.81534 9.51973 9.39029 9.88726C9.62205 10.0354 9.86483 10.1756 10.1186 10.3222C10.1987 10.3684 10.2798 10.4153 10.3621 10.4632C10.706 10.6637 11.0721 10.8848 11.467 11.1624C11.9136 11.4765 12.2648 11.7395 12.5899 12.005C12.5836 12.2805 12.5541 12.866 12.4196 13.1451C12.2254 13.5479 12.1088 13.831 12.1088 13.831Z" fill="#9A9AA0"/>
<path d="M13.8134 12.893C13.0561 12.168 12.5321 11.7259 11.5743 11.0524C11.1738 10.7709 10.803 10.547 10.4573 10.3455C10.3736 10.2967 10.2916 10.2493 10.2111 10.2028C9.95814 10.0568 9.71969 9.91904 9.49147 9.77315C8.92784 9.41286 8.42959 9.00447 7.9573 8.30992C8.59149 7.92755 9.09579 7.72673 9.54786 7.5467C10.1453 7.30879 10.6515 7.10721 11.2457 6.57092C12.1838 5.72432 13.0121 4 13.0121 4C13.0121 4 19.2312 7.91276 21.1156 10.7595L14.1055 13.1411L13.8134 12.893Z" fill="#9A9AA0"/>
<path d="M16.3766 21.7108C15.6076 21.9365 15.6195 21.7822 15.6195 21.7822C15.6195 21.7822 15.6868 21.0388 15.7037 20.2111C15.7125 19.7782 15.7007 19.4674 15.3672 19.1399C15.0059 18.785 14.5967 18.6782 14.0456 18.7114C13.4643 18.7464 13.2936 18.8976 13.0121 19.2113C12.813 19.4331 12.7071 19.8768 12.7071 19.8768C12.7071 19.8768 12.5496 20.4953 12.3392 20.8538C12.0372 21.3684 11.5482 22.0553 11.2457 21.9965C10.2578 21.8042 9.23109 21.4315 8.13356 20.7824C7.33216 20.3085 6.2831 19.3541 6.2831 19.3541C6.2831 19.3541 6.69669 18.5921 6.78777 18.0687C6.88869 17.4886 6.70366 16.569 6.70366 16.569L11.7476 14.7941C11.7476 14.7941 11.5995 15.4522 11.7804 15.8241C12.144 16.5717 13.145 16.856 14.0456 16.5925C15.023 16.3066 15.5328 15.7824 15.199 14.5693C15.0693 14.0982 14.7191 13.7838 14.7191 13.7838L21.5328 11.4752C22.0036 12.4022 22.2644 13.4242 22.2644 14.4979C22.2644 16.5395 21.113 18.8265 19.3205 20.2111C18.552 20.8047 17.3192 21.4341 16.3766 21.7108Z" fill="#9A9AA0"/>
<path d="M4.68496 16.9974C4.98386 17.7151 5.77842 18.7114 5.77842 18.7114C5.77842 18.7114 6.15498 17.56 5.94665 16.8546C5.68458 15.9672 4.2644 14.9978 4.2644 14.9978C4.2644 14.9978 4.37349 16.2496 4.68496 16.9974Z" fill="#9A9AA0"/>
</svg>
