<svg width="26" height="26" viewBox="0 0 26 26" fill="none" xmlns="http://www.w3.org/2000/svg">
<path d="M19.9999 13.6068C19.8819 14.8835 19.4028 16.1001 18.6186 17.1144C17.8344 18.1287 16.7775 18.8987 15.5717 19.3342C14.3659 19.7698 13.0609 19.8529 11.8096 19.5739C10.5582 19.2949 9.41217 18.6652 8.5056 17.7586C7.59902 16.8521 6.96938 15.706 6.69036 14.4547C6.41133 13.2033 6.49446 11.8984 6.93002 10.6925C7.36558 9.48669 8.13555 8.42984 9.14984 7.64563C10.1641 6.86142 11.3808 6.38229 12.6574 6.26431C11.91 7.27551 11.5503 8.5214 11.6438 9.77537C11.7373 11.0293 12.2778 12.2081 13.167 13.0973C14.0561 13.9864 15.2349 14.5269 16.4889 14.6204C17.7428 14.7139 18.9887 14.3543 19.9999 13.6068V13.6068Z" stroke="#6D6D7A" stroke-width="1.8" stroke-linecap="round" stroke-linejoin="round"/>
</svg>
